<svg xmlns="http://www.w3.org/2000/svg" xmlns:xlink="http://www.w3.org/1999/xlink" width="296.766" height="285.52" viewBox="0 0 296.766 285.52"><defs><style>.a{fill:#eee;}.b{fill:#bdbdbd;}.c{fill:url(#a);}.d{fill:#e64d4e;}.e{fill:#1a3574;}.f{fill:#8280ff;}.g{fill:#f2dad4;}.h{fill:#214497;}.i{fill:url(#b);}.j{fill:url(#c);}</style><linearGradient id="a" x1="-0.209" y1="-0.227" x2="-0.209" y2="0.559" gradientUnits="objectBoundingBox"><stop offset="0" stop-color="#e5e5e5"/><stop offset="0.476" stop-color="#f3f3f3"/><stop offset="1" stop-color="#fff"/></linearGradient><linearGradient id="b" x1="0.595" y1="2.302" x2="0.684" y2="3.34" gradientUnits="objectBoundingBox"><stop offset="0" stop-color="#f2bfad"/><stop offset="1" stop-color="#f2dad4"/></linearGradient><linearGradient id="c" x1="0.415" y1="1.269" x2="0.572" y2="2.282" gradientUnits="objectBoundingBox"><stop offset="0" stop-color="#214497"/><stop offset="0.984" stop-color="#176ad4"/><stop offset="1" stop-color="#176ad4"/></linearGradient></defs><g transform="translate(-1077.517 -458.246)"><g transform="translate(1077.517 568.92)"><g transform="translate(207.87)"><path class="a" d="M1684.276,800.267c-2,2.823-.349,6.5,1.637,8.562,2.443,2.541,4.924,2.148,6.055,4.4,1.366,2.715-1.542,4.711-.025,7.549.932,1.744,2.21,1.329,4.063,3.543,2.257,2.7.044,3.464,1.645,5.437,5.144,6.339,7.2,1.942,10.335,3.609,4.059,2.161,6.774,4.005,8.761,3.573,7.809-1.7,5.4-6.833,9.194-8.812,5.123-2.674,7.626-13.618,4.109-17.474-1.841-2.019-3.661-2.264-3.832-3.947-.247-2.427,3.418-3.133,3.791-6.053.422-3.311-3.972-4.915-3.318-7.712.638-2.727,5.148-2.629,5.437-4.577.438-2.954-9.186-8.244-19.153-7.915-4.767.157-12.53,1.7-13.822,5.667-.746,2.294,1.195,3.773.1,6.736-.8,2.154-2.555,3.359-4.885,4.911C1692.155,799.233,1687.807,795.273,1684.276,800.267Z" transform="translate(-1683.37 -780.431)"/><path class="b" d="M1742.617,832.672c-1.568-.079-2.368,10.377-1.458,11.749s2.619,2.383,2.732,3.88-.555,28.017-1.108,27.633-5.145-7.333-4.229-8.952,1.956-4.12,1.741-6.236-.217-5.129-.809-5.055-.1,5.264-.508,6.27-.483,1.793-1.075,1.811-.6-5.474-1.507-5.377-.289,8.189.021,9.687,1.371,6.67,2.35,8.575,3.956,3.9,4.029,4.55-.4,16.094-.4,16.094l7.8.141s-2.88-30.453-2.238-31.466,4.711-9.241,5.583-10.081,1.392-5.968.932-6.042-.715,4.927-1.671,5.008-1.471-9.675-2.164-9.589.673,10.121.3,10.74-2.548,4.333-3.271,4.255.4-27.39-.222-27.7-1.086-.053-1.467,2.805-1.12,9.1-1.548,9.093a2.341,2.341,0,0,1-1.519-1.575C1742.883,842.266,1743.314,832.707,1742.617,832.672Z" transform="translate(-1717.892 -814.614)"/></g><g transform="translate(36.5 37.841)"><path class="a" d="M1211,901.952c1.13,1.6.2,3.678-.927,4.848-1.383,1.439-2.788,1.216-3.428,2.488-.773,1.537.873,2.667.014,4.274-.527.987-1.251.752-2.3,2.006-1.278,1.527-.025,1.961-.931,3.078-2.912,3.589-4.079,1.1-5.852,2.043-2.3,1.223-3.835,2.268-4.96,2.023-4.422-.961-3.06-3.868-5.206-4.989-2.9-1.514-4.317-7.71-2.327-9.893,1.043-1.143,2.073-1.282,2.17-2.234.14-1.374-1.936-1.774-2.146-3.427-.239-1.875,2.249-2.783,1.879-4.366-.361-1.544-2.915-1.488-3.078-2.591-.248-1.673,5.2-4.668,10.844-4.481,2.7.089,7.094.96,7.826,3.208.422,1.3-.677,2.136-.057,3.814.451,1.219,1.447,1.9,2.766,2.78C1206.54,901.367,1209,899.125,1211,901.952Z" transform="translate(-1183.9 -890.722)"/><path class="b" d="M1210.549,920.3c.888-.044,1.34,5.876.825,6.652s-1.483,1.349-1.547,2.2.314,15.862.628,15.645,2.913-4.152,2.394-5.068a6.588,6.588,0,0,1-.985-3.531c.121-1.2.123-2.9.458-2.862s.054,2.98.287,3.55.274,1.016.609,1.025.342-3.1.853-3.044.164,4.636-.012,5.484a27.787,27.787,0,0,1-1.331,4.855c-.554,1.078-2.24,2.209-2.281,2.576s.229,9.112.229,9.112l-4.415.08s1.631-17.242,1.267-17.816-2.667-5.232-3.161-5.707-.788-3.379-.528-3.421.4,2.789.947,2.835.833-5.477,1.225-5.429-.381,5.731-.169,6.081,1.443,2.453,1.852,2.409-.225-15.507.126-15.681.615-.03.83,1.588.634,5.153.876,5.148a1.326,1.326,0,0,0,.86-.892C1210.4,925.731,1210.154,920.319,1210.549,920.3Z" transform="translate(-1196.935 -910.075)"/></g><ellipse class="c" cx="148.383" cy="52.53" rx="148.383" ry="52.53" transform="translate(0 69.785)"/></g><g transform="translate(1198.432 458.246)"><g transform="translate(5.805 61.187)"><rect class="d" width="43.919" height="4.453" transform="translate(1.967 123.401)"/><path class="e" d="M1498.76,1068.5c-.869.63-2.326,1.777-3.094,2.249a3.147,3.147,0,0,0-1.773,2.879c-.014,1.7,2.541,4.637,4.284,4.583s4.237-2.969,4.727-4.189,2.664-5.158.615-6.2S1498.76,1068.5,1498.76,1068.5Z" transform="translate(-1477.754 -918.867)"/><path class="f" d="M1531.809,957.189c.108.856,1.718,2.835,1.33,5s-3.529,14.175-5.746,18.184-3.686,7.291-6.014,7.9-3.642-3.972-3.687-4.469,3.88-7.773,4.095-9.727,1.972-8.167.948-8.723-.954-.91-1.991-.723-3.29-4.435-3.29-4.435,3.534-9.9,6.1-10.087C1528.328,949.751,1531.678,956.14,1531.809,957.189Z" transform="translate(-1493.231 -840.416)"/><path class="g" d="M1518.822,1067.6l.934,2.377,3.39-.767,1.325-1.952-2.192-2.078Z" transform="translate(-1494.129 -917.319)"/><path class="f" d="M1466.213,956.65a5.6,5.6,0,0,0-.989,5.567c.588,1.5,10.23,19.989,12.182,22.081s3.43,6.13,4.081,6.073.7-1.916,2.787-2.761,3.478-1.631,3.46-2.188-6.459-11.716-7.751-13.606-5.043-7.268-4.4-7.622,3.7-1.935,5.192-2.056a50.081,50.081,0,0,0,5.433-.578c.377-.2,8.049-11.91,7.821-12.98s-7-3.643-11.849-2.971S1467.653,954.93,1466.213,956.65Z" transform="translate(-1458.692 -837.347)"/><path class="h" d="M1467.487,861.33c-2.867,1.059-10.311,3.091-11.165,3.8s-4.006,9.324-4.809,9.451-4.723,2.557-4.659,4.49,2.239,7.126,4.268,6.893,4.176-2.549,4.371-1.562c1.148,5.815-1.869,13.469-1.34,15.956.2.956,9.449-7.242,17.648-7.4,8.281-.158,14,6.205,14.237,5.217,1.079-4.426-2.069-10.162,2.2-18.4,0,0,3.317,3.317,5.7,3.509s4.688-3.621,4.636-5.169-1.285-5.357-3.273-5.3-2.669,1.167-3.18.775-3.7-8.042-5.607-9-7.919-2.091-8.652-2.529a13.383,13.383,0,0,0-5.742-1.19C1470.535,861.139,1467.487,861.33,1467.487,861.33Z" transform="translate(-1446.854 -780.768)"/><path class="i" d="M1502.921,849.155c.086,1.157.576,3.849.136,4.068s-1.766.935-2.018,1.786c-.241.815.57,4.65,6.359,4.481,5.987-.174,5.416-4.366,5.043-4.969s-1.2-.577-1.275-1.552.147-4.054.141-4.236S1502.921,849.155,1502.921,849.155Z" transform="translate(-1482.423 -772.66)"/><path class="d" d="M1499.135,819.88a38.637,38.637,0,0,1-.841-6.153,6.062,6.062,0,0,1,5.736-4.3c3.61-.113,5.626,1.663,6.482,3.686s.734,6.52.734,6.52-4.033,2.517-5.929,2.5S1499.135,819.88,1499.135,819.88Z" transform="translate(-1480.633 -746.413)"/><path class="g" d="M1499,827.207c-.565.524,1.061,3.372,1.332,3.386s.516-.1.732.283,2.024,4.417,4.941,4.329c3.125-.094,4.534-4.517,4.722-5s.52-.07.725-.326a6.612,6.612,0,0,0,.739-2.592c0-.847-.178-1.07-.578-.989s-.343.709-.544.7.012-1.943-.231-3.119c-.239-1.153-1.335-2.476-5.411-2.16s-5.312.512-5.341,2.593c0,0,.11,3.292-.166,3.222S1499.448,826.79,1499,827.207Z" transform="translate(-1481.029 -754.599)"/><path class="j" d="M1519.374,1066.012c.475-.357,2.261.829,2.753,1.144a8.632,8.632,0,0,0,2.1,1.015,1.246,1.246,0,0,1,.922,1.606c-.252.818-1.843,4.243-1.929,4.935s.437,3.331-.369,4.736-3.9,5.927-5.557,5.934-1.85-3.827-1.587-4.78a7.233,7.233,0,0,0,.117-3,14.34,14.34,0,0,0-1.106-4.28c-.692-1.238-1.637-2.516-.92-3.531a2.767,2.767,0,0,1,2.375-1.3c.635.079.88.807,1.163.617a15.741,15.741,0,0,1,1.484-.968C1519.428,1067.808,1519.081,1066.233,1519.374,1066.012Z" transform="translate(-1490.659 -917.834)"/><path class="d" d="M1461.08,749.871h-.009a.482.482,0,0,1-.48-.484L1462.8,625a.487.487,0,0,1,.5-.466.482.482,0,0,1,.48.484L1461.569,749.4A.483.483,0,0,1,1461.08,749.871Z" transform="translate(-1455.877 -623.406)"/><path class="d" d="M1569.993,713.226h-.009a.463.463,0,0,1-.481-.444l2.215-125.593a.466.466,0,0,1,.49-.428h.009a.463.463,0,0,1,.481.444L1570.483,712.8A.467.467,0,0,1,1569.993,713.226Z" transform="translate(-1527.422 -586.761)"/><path class="g" d="M1448.818,879.257c.124,1.009-.533,3.239-.629,4.121a9.576,9.576,0,0,0,.416,3.916c.516,1.569,1.382,2.421,2.511,1.524a3.316,3.316,0,0,0,1.574-2.5c-.025-.74-1.122-5.841-1.07-6.411s2.514-2.629,2.764-2.62a4.734,4.734,0,0,1,1.065.415c.343.145.665-.383.656-.624a2.173,2.173,0,0,1-.016-.482,2.709,2.709,0,0,0,.219-.92,2.413,2.413,0,0,1,.057-.967c.081-.244.572-.483.566-.655a1.817,1.817,0,0,0-.622-1.549,2.312,2.312,0,0,0-2.235-.757c-1.082.171-2.545.1-2.926.953S1448.524,876.871,1448.818,879.257Z" transform="translate(-1447.699 -788.034)"/><path class="g" d="M1563.094,866.333c.362.248,1.333.407,1.636.717s1.082,1.312,1.822,1.525a2.68,2.68,0,0,1,1.586,1.049c.084.316.042,5.664.206,6.144s2.145,3.127,3.9,2.91.649-5.565.21-6.466a16.626,16.626,0,0,1-1.281-3.907,13.556,13.556,0,0,0-1.177-3.013c-.2-.55,0-2.727-.418-3.073a17.6,17.6,0,0,0-2.364-1.743c-.3-.058-.64-.708-.966-.593-.525.186-.086.681-.436.625s-1.678-.217-1.913.374a1.085,1.085,0,0,0-.027.932.655.655,0,0,0-.816.586,1.456,1.456,0,0,0,.222,1.1s-.672.021-.712.572.516.931.451,1A.923.923,0,0,0,1563.094,866.333Z" transform="translate(-1522.864 -780.124)"/></g><path class="b" d="M982.794,419.671a7.151,7.151,0,0,1,6.974,6.974v13.948a7.151,7.151,0,0,1-6.974,6.974h-48.82A7.15,7.15,0,0,1,927,440.593V426.645a7.15,7.15,0,0,1,6.974-6.974h34.871V405.723h6.974v13.948Zm-38.358,17.436v-6.974h-6.974v6.974Zm12.2,0v-6.974h-6.974v6.974Zm30.338-42.194c-4.533-3.836-9.415-5.928-14.646-5.928s-10.113,2.092-14.646,5.928l-2.79-2.79a24.418,24.418,0,0,1,34.871,0Zm-3.139,2.79-2.79,2.79a12.641,12.641,0,0,0-17.435,0l-2.79-2.79a16,16,0,0,1,23.015,0Zm-14.994,39.4v-6.974h-6.974v6.974Z" transform="translate(-927 -384.8)"/></g></g></svg>